<?xml version="1.0" encoding="UTF-8" standalone="no"?>
<svg
   xmlns:dc="http://purl.org/dc/elements/1.1/"
   xmlns:cc="http://creativecommons.org/ns#"
   xmlns:rdf="http://www.w3.org/1999/02/22-rdf-syntax-ns#"
   xmlns:svg="http://www.w3.org/2000/svg"
   xmlns="http://www.w3.org/2000/svg"
   id="svg10"
   class="si-glyph si-glyph-circle"
   version="1.1"
   viewBox="0 0 17 17">
  <metadata
     id="metadata14">
    <rdf:RDF>
      <cc:Work
         rdf:about="">
        <dc:format>image/svg+xml</dc:format>
        <dc:type
           rdf:resource="http://purl.org/dc/dcmitype/StillImage" />
        <dc:title>1243</dc:title>
      </cc:Work>
    </rdf:RDF>
  </metadata>
  <title
     id="title2">1243</title>
  <defs
     id="defs4"
     class="si-glyph-fill" />
  <path
     id="path4715-3"
     d="M 4.0946607,3.9572807 C 3.5413385,5.1266785 3.558115,6.2146445 3.6721845,7.2887007 2.9146322,8.9552243 2.8033562,10.368158 2.8588716,11.5451 c 0.021653,0.323782 -0.3148863,0.569504 -0.8207577,0.21217 -0.063713,0.535351 0.9394101,1.584658 1.1483163,1.377235 0.093163,0.236043 -0.092968,0.816003 -1.0105929,0.247529 0.2427256,0.950845 0.8762581,0.992072 1.5447367,0.958481 0.2975972,0.705322 -0.5852793,0.863434 -1.2413728,0.954759 0.1480855,0.121492 0.2797883,0.289971 2.0639914,0.191698 0.8574035,0.360577 2.3897888,1.579122 4.4815971,1.332566 2.0918093,0.246556 3.6241943,-0.971989 4.4815973,-1.332566 1.784202,0.09828 1.917768,-0.07019 2.065852,-0.191698 -0.656093,-0.09133 -1.54083,-0.249437 -1.243234,-0.954759 0.668479,0.03358 1.302011,-0.0075 1.544737,-0.958481 -0.917624,0.568474 -1.103755,-0.01149 -1.010592,-0.247529 0.208906,0.207423 1.212031,-0.841885 1.148317,-1.377235 -0.505871,0.357333 -0.842413,0.111612 -0.820758,-0.21217 0.0555,-1.176941 -0.05578,-2.5898757 -0.813313,-4.2563993 0.11407,-1.0740562 0.130846,-2.1620222 -0.422476,-3.33142 -1.087849,0.3886414 -2.126869,0.8426579 -2.739581,1.8964899 -2.2351419,-0.3292696 -3.0197996,-0.2878163 -4.3792361,0 C 6.2233903,4.7999386 5.1825095,4.3459221 4.0946607,3.9572807 Z"
     style="fill:#434343;fill-rule:evenodd;stroke:#434343;stroke-width:0.28553227;stroke-linecap:round;stroke-linejoin:round;stroke-miterlimit:4;stroke-dasharray:none;stroke-opacity:1;fill-opacity:1" />
  <path
     id="path4596"
     d="M 9.056441,12.568837 C 8.70206,12.445733 8.0578148,11.765593 8.2601573,11.437121 c 0.3493882,-0.257265 1.2446395,-0.256074 1.7223605,-6e-6 -0.058376,0.59548 -0.4837582,0.920194 -0.9260768,1.131722 z"
     style="fill:#ffffff;fill-opacity:1;fill-rule:evenodd;stroke:#ffffff;stroke-width:0.70467192;stroke-linecap:round;stroke-linejoin:round;stroke-miterlimit:4;stroke-dasharray:none;stroke-opacity:1" />
  <ellipse
     ry="1.5075248"
     rx="1.652082"
     cy="8.5890102"
     cx="6.1287875"
     id="path4759"
     style="color:#000000;clip-rule:nonzero;display:inline;overflow:visible;visibility:visible;opacity:1;isolation:auto;mix-blend-mode:normal;color-interpolation:sRGB;color-interpolation-filters:linearRGB;solid-color:#000000;solid-opacity:1;vector-effect:none;fill:#ffffff;fill-opacity:1;fill-rule:evenodd;stroke:none;stroke-width:0.56021851;stroke-linecap:round;stroke-linejoin:round;stroke-miterlimit:4;stroke-dasharray:none;stroke-dashoffset:0;stroke-opacity:1;color-rendering:auto;image-rendering:auto;shape-rendering:auto;text-rendering:auto;enable-background:accumulate" />
  <ellipse
     ry="1.1306435"
     rx="1.2390616"
     cy="8.6044998"
     cx="6.128787"
     id="path4759-7"
     style="color:#000000;clip-rule:nonzero;display:inline;overflow:visible;visibility:visible;opacity:1;isolation:auto;mix-blend-mode:normal;color-interpolation:sRGB;color-interpolation-filters:linearRGB;solid-color:#000000;solid-opacity:1;vector-effect:none;fill:#434343;fill-opacity:1;fill-rule:evenodd;stroke:none;stroke-width:0.42016387;stroke-linecap:round;stroke-linejoin:round;stroke-miterlimit:4;stroke-dasharray:none;stroke-dashoffset:0;stroke-opacity:1;color-rendering:auto;image-rendering:auto;shape-rendering:auto;text-rendering:auto;enable-background:accumulate" />
  <ellipse
     ry="1.5075248"
     rx="1.652082"
     cy="8.7748699"
     cx="11.911074"
     id="path4759-0"
     style="color:#000000;clip-rule:nonzero;display:inline;overflow:visible;visibility:visible;opacity:1;isolation:auto;mix-blend-mode:normal;color-interpolation:sRGB;color-interpolation-filters:linearRGB;solid-color:#000000;solid-opacity:1;vector-effect:none;fill:#ffffff;fill-opacity:1;fill-rule:evenodd;stroke:none;stroke-width:0.56021851;stroke-linecap:round;stroke-linejoin:round;stroke-miterlimit:4;stroke-dasharray:none;stroke-dashoffset:0;stroke-opacity:1;color-rendering:auto;image-rendering:auto;shape-rendering:auto;text-rendering:auto;enable-background:accumulate" />
  <ellipse
     ry="1.1306435"
     rx="1.2390616"
     cy="8.7903585"
     cx="11.911074"
     id="path4759-7-9"
     style="color:#000000;clip-rule:nonzero;display:inline;overflow:visible;visibility:visible;opacity:1;isolation:auto;mix-blend-mode:normal;color-interpolation:sRGB;color-interpolation-filters:linearRGB;solid-color:#000000;solid-opacity:1;vector-effect:none;fill:#434343;fill-opacity:1;fill-rule:evenodd;stroke:none;stroke-width:0.42016387;stroke-linecap:round;stroke-linejoin:round;stroke-miterlimit:4;stroke-dasharray:none;stroke-dashoffset:0;stroke-opacity:1;color-rendering:auto;image-rendering:auto;shape-rendering:auto;text-rendering:auto;enable-background:accumulate" />
  <path
     id="path4794"
     d="m 7.2026401,14.22674 c 1.14521,3.717666 4.0476189,1.827151 3.6345819,-0.247813 z"
     style="fill:#ffffff;fill-opacity:1;fill-rule:evenodd;stroke:none;stroke-width:0.93222237px;stroke-linecap:butt;stroke-linejoin:miter;stroke-opacity:1" />
  <path
     id="path4857"
     d="M 8.982473,1.4764195 A 1.3680291,1.3680291 0 0 0 7.6145767,2.8443158 1.3680291,1.3680291 0 0 0 8.982473,4.2122121 1.3680291,1.3680291 0 0 0 10.350369,2.8443158 1.3680291,1.3680291 0 0 0 8.982473,1.4764195 Z M 9.005359,4.5396622 V 5.7561569 L 9.054653,4.5396622 Z"
     style="fill:none;fill-rule:evenodd;stroke:#434343;stroke-width:0.90821016px;stroke-linecap:butt;stroke-linejoin:miter;stroke-opacity:1" />
</svg>
